<?xml version="1.0" encoding="UTF-8"?>
<!-- Generated by Pixelmator Pro 3.5.7 -->
<svg width="512" height="341" viewBox="0 0 512 341" xmlns="http://www.w3.org/2000/svg">
    <path id="Path" fill="#d5d5d5" stroke="none" d="M 0 -0.333008 L 512 -0.333008 L 512 341.004028 L 0 341.004028 Z"/>
    <path id="path1" fill="#646464" fill-rule="evenodd" stroke="none" d="M 281.897369 179.164551 L 324.162018 179.164551 C 324.162018 198.115173 319.112762 213.387634 309.014069 224.982422 C 295.923187 240.068115 279.154633 247.61084 258.707916 247.61084 C 240.754715 247.61084 225.731598 241.377182 213.638107 228.909668 C 201.419952 216.317474 195.310959 200.920334 195.310959 182.717773 C 195.310959 168.255463 199.113495 156.660858 206.718674 147.933594 C 214.448532 139.081665 227.539215 131.351913 245.991135 124.744141 C 264.318359 118.011688 275.912994 112.588394 280.775299 108.474121 C 285.762329 104.359848 288.255768 98.001511 288.255768 89.398926 C 288.255768 80.796356 285.668823 73.97049 280.494781 68.921143 C 275.32077 63.871796 268.432587 61.347168 259.829987 61.347168 C 251.227417 61.347168 244.370392 63.840637 239.258713 68.827637 C 234.147034 73.814636 231.591232 80.609344 231.591232 89.211914 C 231.591232 93.076843 232.339264 98.43779 233.835373 105.294922 L 190.261642 105.294922 C 190.012283 102.053375 189.794113 99.185883 189.607101 96.692383 C 189.42009 94.198883 189.326584 91.954758 189.326584 89.959961 C 189.326584 70.261292 195.996597 53.86676 209.336838 40.775879 C 222.552399 27.684998 239.258606 21.139648 259.455963 21.139648 C 279.778015 21.139648 296.733582 27.747345 310.323151 40.962891 C 323.91275 54.178436 330.707428 70.697662 330.707428 90.520996 C 330.707428 110.843033 323.91275 127.237564 310.323151 139.705078 C 301.720581 147.559616 285.513062 155.164673 261.700104 162.520508 C 245.492355 167.507507 237.388596 175.361923 237.388596 186.083984 C 237.388596 189.076187 237.980789 191.912506 239.165207 194.593018 C 240.349625 197.273529 241.939209 199.61116 243.934006 201.605957 C 245.928802 203.600754 248.266434 205.15918 250.946945 206.28125 C 253.627457 207.40332 256.463776 207.964355 259.455963 207.964355 C 273.170227 207.964355 280.650635 198.364517 281.897369 179.164551 Z M 234.209396 293.054688 C 234.209396 286.072876 236.765198 280.026245 241.876877 274.914551 C 246.988556 269.802856 253.097549 267.24707 260.20401 267.24707 C 267.310516 267.24707 273.419495 269.802856 278.531158 274.914551 C 283.642853 280.026245 286.198639 286.135223 286.198639 293.241699 C 286.198639 300.472839 283.642853 306.644165 278.531158 311.755859 C 273.544159 316.742859 267.497528 319.236328 260.391022 319.236328 C 253.035202 319.236328 246.863876 316.742859 241.876877 311.755859 C 236.765198 306.644165 234.209396 300.410522 234.209396 293.054688 Z"/>
</svg>
